999
DXF created from Projekt
0
SECTION
2
HEADER
9
$ACADVER
1
AC1006
9
$INSUNITS
70
4
9
$INSBASE
10
0.0
20
0.0
30
0.0
9
$EXTMIN
10
-120.133
20
-12.107
9
$EXTMAX
10
133.886
20
15.912
0
ENDSEC
0
SECTION
2
TABLES
0
TABLE
2
LTYPE
70
1
0
LTYPE
2
CONTINUOUS
70
64
3
Solid line
72
65
73
0
40
0.000000
0
ENDTAB
0
TABLE
2
LAYER
70
6
0
LAYER
2
1
70
64
62
7
6
CONTINUOUS
0
ENDTAB
0
TABLE
2
STYLE
70
0
0
ENDTAB
0
ENDSEC
0
SECTION
2
BLOCKS
0
ENDSEC
0
SECTION
2
ENTITIES
0
LINE
8
1
10
133.886
20
15.912
11
-120.133
21
15.912
62
0
0
LINE
8
1
10
-120.133
20
15.912
11
-120.133
21
-12.107
62
0
0
LINE
8
1
10
-120.133
20
-12.107
11
133.886
21
-12.107
62
0
0
LINE
8
1
10
133.886
20
-12.107
11
133.886
21
15.912
62
0
0
CIRCLE
8
1
10
-99.823
20
12.602
40
1.48988
62
0
0
CIRCLE
8
1
10
-35.123
20
12.602
40
1.48988
62
0
0
CIRCLE
8
1
10
50.635
20
12.602
40
1.48985
62
0
0
CIRCLE
8
1
10
115.635
20
12.602
40
1.48985
62
0
0
LINE
8
1
10
129.886
20
-8.087
11
129.886
21
11.892
62
0
0
LINE
8
1
10
129.886
20
11.892
11
132.866
21
11.892
62
0
0
LINE
8
1
10
132.866
20
11.892
11
132.866
21
-8.087
62
0
0
LINE
8
1
10
132.866
20
-8.087
11
129.886
21
-8.087
62
0
0
LINE
8
1
10
90.886
20
-6.337
11
90.886
21
10.142
62
0
0
LINE
8
1
10
90.886
20
10.142
11
101.866
21
10.142
62
0
0
LINE
8
1
10
101.866
20
10.142
11
101.866
21
-6.337
62
0
0
LINE
8
1
10
101.866
20
-6.337
11
90.886
21
-6.337
62
0
0
CIRCLE
8
1
10
-53.623
20
1.902
40
3.48969
62
0
0
CIRCLE
8
1
10
-99.823
20
-8.796
40
1.48988
62
0
0
CIRCLE
8
1
10
-35.123
20
-8.796
40
1.48988
62
0
0
CIRCLE
8
1
10
50.635
20
-8.796
40
1.48985
62
0
0
CIRCLE
8
1
10
115.635
20
-8.796
40
1.48985
62
0
0
CIRCLE
8
1
10
115.635
20
12.602
40
2.86315
62
1
0
CIRCLE
8
1
10
50.635
20
12.602
40
2.86315
62
1
0
CIRCLE
8
1
10
-35.123
20
12.602
40
2.86315
62
1
0
CIRCLE
8
1
10
-99.823
20
12.602
40
2.86315
62
1
0
CIRCLE
8
1
10
115.635
20
12.602
40
1.48985
62
1
0
CIRCLE
8
1
10
50.635
20
12.602
40
1.48985
62
1
0
CIRCLE
8
1
10
-35.123
20
12.602
40
1.48988
62
1
0
CIRCLE
8
1
10
-99.823
20
12.602
40
1.48988
62
1
0
CIRCLE
8
1
10
115.635
20
-8.796
40
2.86315
62
1
0
CIRCLE
8
1
10
50.635
20
-8.796
40
2.86315
62
1
0
CIRCLE
8
1
10
-35.123
20
-8.796
40
2.86315
62
1
0
CIRCLE
8
1
10
-99.823
20
-8.796
40
2.86315
62
1
0
CIRCLE
8
1
10
115.635
20
-8.796
40
1.48985
62
1
0
CIRCLE
8
1
10
50.635
20
-8.796
40
1.48985
62
1
0
CIRCLE
8
1
10
-35.123
20
-8.796
40
1.48988
62
1
0
CIRCLE
8
1
10
-99.823
20
-8.796
40
1.48988
62
1
0
ENDSEC
0
EOF
