999
DXF created from Projekt
0
SECTION
2
HEADER
9
$ACADVER
1
AC1006
9
$INSUNITS
70
4
9
$INSBASE
10
0.0
20
0.0
30
0.0
9
$EXTMIN
10
-1.51
20
-13.01
9
$EXTMAX
10
26.51
20
14.61
0
ENDSEC
0
SECTION
2
TABLES
0
TABLE
2
LTYPE
70
1
0
LTYPE
2
CONTINUOUS
70
64
3
Solid line
72
65
73
0
40
0.000000
0
ENDTAB
0
TABLE
2
LAYER
70
6
0
LAYER
2
1
70
64
62
7
6
CONTINUOUS
0
ENDTAB
0
TABLE
2
STYLE
70
0
0
ENDTAB
0
ENDSEC
0
SECTION
2
BLOCKS
0
ENDSEC
0
SECTION
2
ENTITIES
0
LINE
8
1
10
22.51
20
-10.01
11
26.51
21
-10.01
62
0
0
LINE
8
1
10
26.51
20
-10.01
11
26.478
21
8.102
62
0
0
LINE
8
1
10
26.478
20
8.102
11
26.384
21
8.596
62
0
0
LINE
8
1
10
26.384
20
8.596
11
26.228
21
9.075
62
0
0
LINE
8
1
10
26.228
20
9.075
11
26.014
21
9.532
62
0
0
LINE
8
1
10
26.014
20
9.532
11
25.744
21
9.957
62
0
0
LINE
8
1
10
25.744
20
9.957
11
25.423
21
10.345
62
0
0
LINE
8
1
10
25.423
20
10.345
11
25.056
21
10.69
62
0
0
LINE
8
1
10
25.056
20
10.69
11
24.649
21
10.985
62
0
0
LINE
8
1
10
24.649
20
10.985
11
24.208
21
11.228
62
0
0
LINE
8
1
10
24.208
20
11.228
11
23.739
21
11.413
62
0
0
LINE
8
1
10
23.739
20
11.413
11
23.251
21
11.539
62
0
0
LINE
8
1
10
23.251
20
11.539
11
22.752
21
11.602
62
0
0
LINE
8
1
10
22.752
20
11.602
11
22.51
21
11.61
62
0
0
LINE
8
1
10
22.51
20
11.61
11
22.51
21
14.61
62
0
0
LINE
8
1
10
22.51
20
14.61
11
2.49
21
14.61
62
0
0
LINE
8
1
10
2.49
20
14.61
11
2.49
21
11.609
62
0
0
LINE
8
1
10
2.49
20
11.609
11
1.997
21
11.578
62
0
0
LINE
8
1
10
1.997
20
11.578
11
1.503
21
11.484
62
0
0
LINE
8
1
10
1.503
20
11.484
11
1.024
21
11.328
62
0
0
LINE
8
1
10
1.024
20
11.328
11
0.567
21
11.114
62
0
0
LINE
8
1
10
0.567
20
11.114
11
0.142
21
10.844
62
0
0
LINE
8
1
10
0.142
20
10.844
11
-0.245
21
10.523
62
0
0
LINE
8
1
10
-0.245
20
10.523
11
-0.59
21
10.156
62
0
0
LINE
8
1
10
-0.59
20
10.156
11
-0.885
21
9.749
62
0
0
LINE
8
1
10
-0.885
20
9.749
11
-1.128
21
9.308
62
0
0
LINE
8
1
10
-1.128
20
9.308
11
-1.313
21
8.839
62
0
0
LINE
8
1
10
-1.313
20
8.839
11
-1.439
21
8.351
62
0
0
LINE
8
1
10
-1.439
20
8.351
11
-1.502
21
7.852
62
0
0
LINE
8
1
10
-1.502
20
7.852
11
-1.51
21
-10.01
62
0
0
LINE
8
1
10
-1.51
20
-10.01
11
2.49
21
-10.01
62
0
0
LINE
8
1
10
2.49
20
-10.01
11
2.49
21
-13.01
62
0
0
LINE
8
1
10
2.49
20
-13.01
11
22.51
21
-13.01
62
0
0
LINE
8
1
10
22.51
20
-13.01
11
22.51
21
-10.01
62
0
0
LINE
8
1
10
0.01
20
1.61
11
0.016
21
7.269
62
0
0
LINE
8
1
10
0.016
20
7.269
11
0.039
21
7.442
62
0
0
LINE
8
1
10
0.039
20
7.442
11
0.076
21
7.611
62
0
0
LINE
8
1
10
0.076
20
7.611
11
0.077
21
7.612
62
0
0
LINE
8
1
10
0.077
20
7.612
11
0.129
21
7.78
62
0
0
LINE
8
1
10
0.129
20
7.78
11
0.194
21
7.938
62
0
0
LINE
8
1
10
0.194
20
7.938
11
0.195
21
7.939
62
0
0
LINE
8
1
10
0.195
20
7.939
11
0.274
21
8.093
62
0
0
LINE
8
1
10
0.274
20
8.093
11
0.275
21
8.094
62
0
0
LINE
8
1
10
0.275
20
8.094
11
0.367
21
8.239
62
0
0
LINE
8
1
10
0.367
20
8.239
11
0.369
21
8.24
62
0
0
LINE
8
1
10
0.369
20
8.24
11
0.473
21
8.377
62
0
0
LINE
8
1
10
0.473
20
8.377
11
0.72
21
8.624
62
0
0
LINE
8
1
10
0.72
20
8.624
11
0.858
21
8.729
62
0
0
LINE
8
1
10
0.858
20
8.729
11
0.859
21
8.731
62
0
0
LINE
8
1
10
0.859
20
8.731
11
1.005
21
8.823
62
0
0
LINE
8
1
10
1.005
20
8.823
11
1.159
21
8.903
62
0
0
LINE
8
1
10
1.159
20
8.903
11
1.16
21
8.904
62
0
0
LINE
8
1
10
1.16
20
8.904
11
1.318
21
8.969
62
0
0
LINE
8
1
10
1.318
20
8.969
11
1.486
21
9.021
62
0
0
LINE
8
1
10
1.486
20
9.021
11
1.487
21
9.022
62
0
0
LINE
8
1
10
1.487
20
9.022
11
1.656
21
9.059
62
0
0
LINE
8
1
10
1.656
20
9.059
11
1.829
21
9.082
62
0
0
LINE
8
1
10
1.829
20
9.082
11
2.003
21
9.089
62
0
0
LINE
8
1
10
2.003
20
9.089
11
2.004
21
9.09
62
0
0
LINE
8
1
10
2.004
20
9.09
11
10.656
21
9.09
62
0
0
LINE
8
1
10
10.656
20
9.09
11
10.656
21
1.61
62
0
0
LINE
8
1
10
10.656
20
1.61
11
0.01
21
1.61
62
0
0
LINE
8
1
10
12.51
20
1.61
11
12.51
21
9.09
62
0
0
LINE
8
1
10
12.51
20
9.09
11
23.169
21
9.083
62
0
0
LINE
8
1
10
23.169
20
9.083
11
23.342
21
9.06
62
0
0
LINE
8
1
10
23.342
20
9.06
11
23.511
21
9.023
62
0
0
LINE
8
1
10
23.511
20
9.023
11
23.512
21
9.022
62
0
0
LINE
8
1
10
23.512
20
9.022
11
23.68
21
8.97
62
0
0
LINE
8
1
10
23.68
20
8.97
11
23.838
21
8.905
62
0
0
LINE
8
1
10
23.838
20
8.905
11
23.839
21
8.904
62
0
0
LINE
8
1
10
23.839
20
8.904
11
23.994
21
8.824
62
0
0
LINE
8
1
10
23.994
20
8.824
11
24.139
21
8.732
62
0
0
LINE
8
1
10
24.139
20
8.732
11
24.14
21
8.73
62
0
0
LINE
8
1
10
24.14
20
8.73
11
24.278
21
8.625
62
0
0
LINE
8
1
10
24.278
20
8.625
11
24.525
21
8.378
62
0
0
LINE
8
1
10
24.525
20
8.378
11
24.629
21
8.241
62
0
0
LINE
8
1
10
24.629
20
8.241
11
24.631
21
8.24
62
0
0
LINE
8
1
10
24.631
20
8.24
11
24.723
21
8.095
62
0
0
LINE
8
1
10
24.723
20
8.095
11
24.724
21
8.094
62
0
0
LINE
8
1
10
24.724
20
8.094
11
24.803
21
7.94
62
0
0
LINE
8
1
10
24.803
20
7.94
11
24.804
21
7.939
62
0
0
LINE
8
1
10
24.804
20
7.939
11
24.869
21
7.781
62
0
0
LINE
8
1
10
24.869
20
7.781
11
24.921
21
7.613
62
0
0
LINE
8
1
10
24.921
20
7.613
11
24.922
21
7.612
62
0
0
LINE
8
1
10
24.922
20
7.612
11
24.959
21
7.443
62
0
0
LINE
8
1
10
24.959
20
7.443
11
24.96
21
7.442
62
0
0
LINE
8
1
10
24.96
20
7.442
11
24.982
21
7.27
62
0
0
LINE
8
1
10
24.982
20
7.27
11
24.989
21
7.096
62
0
0
LINE
8
1
10
24.989
20
7.096
11
24.99
21
7.095
62
0
0
LINE
8
1
10
24.99
20
7.095
11
24.99
21
1.61
62
0
0
LINE
8
1
10
24.99
20
1.61
11
12.51
21
1.61
62
0
0
ENDSEC
0
EOF
